<?xml version="1.0" encoding="utf-8"?>
<!-- Generator: Adobe Illustrator 22.1.0, SVG Export Plug-In . SVG Version: 6.00 Build 0)  -->
<svg version="1.1" id="Capa_1" xmlns="http://www.w3.org/2000/svg" xmlns:xlink="http://www.w3.org/1999/xlink" x="0px" y="0px"
	 viewBox="0 0 512 512" style="enable-background:new 0 0 512 512;" xml:space="preserve">
<style type="text/css">
	.st0{fill:#FFFFFF;}
	.st1{stroke:#FFFFFF;stroke-miterlimit:10;}
	.st2{fill:#FFFFFF;stroke:#000000;stroke-miterlimit:10;}
	.st3{fill:#FCFCFC;stroke:#231F20;stroke-miterlimit:10;}
</style>
<circle class="st0" cx="256" cy="256" r="256"/>
<path class="st1" d="M400.5,201.3c-0.4-36.4-30.1-65.8-66.6-65.8c-6.6,0-13,1-19,2.8c-18-33.1-53.2-55.6-93.5-55.6
	c-58.8,0-106.4,47.6-106.4,106.4c0,1.2,0,2.4,0.1,3.5c-39,11.1-67.6,47-67.6,89.6c0,51.4,41.7,93.1,93.1,93.1
	c21.7,0,41.6-7.4,57.4-19.8c17.4,12.5,38.8,19.8,61.8,19.8c22.7,0,43.8-7.1,61.1-19.3c15.1,12.1,34.3,19.3,55.2,19.3
	c49,0,88.6-39.7,88.6-88.6C464.6,246,437.5,211.9,400.5,201.3z"/>
<g>
	<path class="st2" d="M149.2,250c0-7.1,1.2-14.1,3.7-21.2c2.5-7,6.1-13.3,11-18.9c4.8-5.6,10.7-10.1,17.7-13.5s14.9-5.1,23.7-5.1
		c10.5,0,19.5,2.4,27.1,7.1c7.5,4.8,13.1,11,16.8,18.6l-11.8,7.6c-1.8-3.8-3.9-6.9-6.4-9.5c-2.5-2.5-5.2-4.6-8.1-6.1
		c-2.9-1.6-6-2.7-9.1-3.3c-3.1-0.7-6.1-1-9.1-1c-6.5,0-12.3,1.4-17.4,4.1c-5,2.7-9.3,6.3-12.7,10.6c-3.4,4.4-6,9.3-7.7,14.8
		s-2.6,11-2.6,16.5c0,6.2,1,12.1,3.1,17.7c2,5.6,4.9,10.5,8.6,14.9c3.7,4.3,8,7.8,13,10.3s10.4,3.8,16.3,3.8c3.1,0,6.3-0.4,9.5-1.2
		c3.3-0.8,6.4-2,9.4-3.7s5.8-3.9,8.4-6.5c2.6-2.6,4.7-5.7,6.4-9.4l12.5,6.8c-1.9,4.4-4.5,8.3-7.9,11.7c-3.4,3.4-7.2,6.2-11.5,8.6
		c-4.3,2.3-8.8,4.1-13.5,5.3c-4.8,1.2-9.4,1.8-13.9,1.8c-8.1,0-15.5-1.8-22.3-5.3s-12.6-8.2-17.5-13.9c-4.9-5.7-8.7-12.2-11.5-19.4
		C150.6,264.9,149.2,257.5,149.2,250z"/>
	<path class="st3" d="M316.6,310.6c-8.3,0-15.9-1.7-22.7-5.1c-6.8-3.4-12.6-7.9-17.5-13.5s-8.6-12-11.3-19.2c-2.7-7.2-4-14.6-4-22.1
		c0-7.9,1.4-15.4,4.2-22.6c2.8-7.2,6.7-13.6,11.7-19.1s10.9-9.9,17.7-13.2c6.8-3.3,14.2-4.9,22.2-4.9c8.3,0,15.8,1.7,22.6,5.2
		c6.8,3.5,12.6,8.1,17.4,13.7c4.9,5.6,8.6,12,11.3,19.2c2.7,7.1,4,14.4,4,21.8c0,7.9-1.4,15.4-4.2,22.6c-2.8,7.2-6.7,13.5-11.6,19
		s-10.8,9.9-17.6,13.1C331.9,309,324.5,310.6,316.6,310.6z M276.2,250.8c0,6,1,11.8,2.9,17.4s4.7,10.5,8.2,14.9
		c3.5,4.3,7.8,7.8,12.8,10.3s10.5,3.8,16.6,3.8c6.3,0,12-1.4,16.9-4.1c5-2.7,9.2-6.3,12.7-10.6c3.5-4.4,6.1-9.3,8-14.9
		c1.8-5.5,2.7-11.1,2.7-16.8c0-6-1-11.8-2.9-17.4c-1.9-5.6-4.7-10.5-8.3-14.8c-3.6-4.3-7.9-7.7-12.8-10.2s-10.4-3.8-16.4-3.8
		c-6.3,0-12,1.3-16.9,4c-5,2.7-9.2,6.1-12.7,10.5c-3.5,4.3-6.2,9.2-8.1,14.8C277.2,239.4,276.2,245.1,276.2,250.8z"/>
</g>
</svg>
