<?xml version="1.0" encoding="utf-8"?>
<!-- Generator: Adobe Illustrator 22.1.0, SVG Export Plug-In . SVG Version: 6.00 Build 0)  -->
<svg version="1.1" id="Capa_1" xmlns="http://www.w3.org/2000/svg" xmlns:xlink="http://www.w3.org/1999/xlink" x="0px" y="0px"
	 viewBox="0 0 512 512" style="enable-background:new 0 0 512 512;" xml:space="preserve">
<style type="text/css">
	.st0{fill:#FFFFFF;stroke:#000000;stroke-miterlimit:10;}
</style>
<g>
	<path class="st0" d="M414.9,155L374.1,166l-20.9-12.1V114l20.9-12.1l40.8,10.9c0.6,0.2,1.3,0.3,1.9,0.3c3.3,0,6.3-2.2,7.2-5.6
		c1.1-4-1.3-8.1-5.3-9.2l-26.3-7.1l22.6-13c3.6-2.1,4.8-6.7,2.7-10.2c-2.1-3.6-6.7-4.8-10.2-2.7l-22.6,13L392,52
		c1.1-4-1.3-8.1-5.3-9.2c-4-1.1-8.1,1.3-9.2,5.3l-10.9,40.8l-20,11.6L309.3,79V55.1l29.9-29.9c2.9-2.9,2.9-7.7,0-10.6
		c-2.9-2.9-7.7-2.9-10.6,0l-19.3,19.3V7.8c0-4.1-3.4-7.5-7.5-7.5s-7.5,3.4-7.5,7.5v26.1L275,14.6c-2.9-2.9-7.7-2.9-10.6,0
		c-2.9,2.9-2.9,7.7,0,10.6l29.9,29.9V79l-35.5,20.5L239,88V55.6c0-15.2-6-29.3-16.9-39.9C211.2,5.1,196.8-0.4,181.6,0
		c-29.7,0.9-53.9,26.7-53.9,57.6v30.6h-16.5c-4.1,0-7.5,3.4-7.5,7.5s3.4,7.5,7.5,7.5h16.5v33.1h-16.5c-4.1,0-7.5,3.4-7.5,7.5
		c0,4.1,3.4,7.5,7.5,7.5h16.5v33.1h-16.5c-4.1,0-7.5,3.4-7.5,7.5c0,4.1,3.4,7.5,7.5,7.5h16.5v33.1h-16.5c-4.1,0-7.5,3.4-7.5,7.5
		c0,4.1,3.4,7.5,7.5,7.5h16.5v33.1h-16.5c-4.1,0-7.5,3.4-7.5,7.5s3.4,7.5,7.5,7.5h16.5v43c-25.2,18-40.1,46.8-40.1,77.8
		c0,27.2,11.6,53.2,31.9,71.3c17.6,15.8,40.5,24.4,64,24.4c3.5,0,7.1-0.2,10.7-0.6c43.7-4.8,79.1-40.1,84.1-83.8
		c4-35-11-68.8-39.4-89.1V179.9l19.9-11.5l35.5,20.5v20.3l-29.9,29.9c-2.9,2.9-2.9,7.7,0,10.6c2.9,2.9,7.7,2.9,10.6,0l19.3-19.3
		v29.6c0,4.1,3.4,7.5,7.5,7.5s7.5-3.4,7.5-7.5v-29.7l19.3,19.3c1.5,1.5,3.4,2.2,5.3,2.2s3.8-0.7,5.3-2.2c2.9-2.9,2.9-7.7,0-10.6
		l-29.9-29.9v-20.3l37.3-21.5l20,11.6l10.9,40.8c0.9,3.4,3.9,5.6,7.2,5.6c0.6,0,1.3-0.1,1.9-0.3c4-1.1,6.4-5.2,5.3-9.2l-7.1-26.3
		l25.7,14.8c1.2,0.7,2.5,1,3.7,1c2.6,0,5.1-1.3,6.5-3.8c2.1-3.6,0.8-8.2-2.7-10.2l-25.7-14.8l26.3-7.1c4-1.1,6.4-5.2,5.3-9.2
		C423,156.3,418.9,154,414.9,155z M338.2,145.2l-19.6-11.3l19.6-11.3V145.2z M288.6,133.9l-23.2,13.4v-26.7L288.6,133.9z
		 M331.6,109.1L309.3,122V96.3L331.6,109.1z M294.3,96.3v23.6l-20.5-11.8L294.3,96.3z M263.5,425.9c-4.2,36.8-34,66.5-70.9,70.6
		c-23.3,2.6-45.7-4.5-63-20c-17.1-15.3-26.9-37.2-26.9-60.1c0-27.3,13.7-52.6,36.7-67.6c2.1-1.4,3.4-3.7,3.4-6.3V57.6
		c0-22.8,17.6-41.9,39.3-42.6c0.4,0,0.8,0,1.3,0c10.6,0,20.6,4,28.3,11.5c7.9,7.7,12.3,18.1,12.3,29.1v286.9c0,2.5,1.3,4.9,3.4,6.3
		C253.2,365.6,267,395.2,263.5,425.9z M239,105.3l11.5,6.6V156l-11.5,6.6V105.3z M273.8,159.8l20.5-11.8v23.6L273.8,159.8z
		 M309.3,171.6v-25.7l22.3,12.9L309.3,171.6z"/>
	<path class="st0" d="M231.1,425.7c-3.6,19.2-18.8,34.5-37.9,38.3c-14.6,2.8-29.5-0.8-40.7-10.1c-11.3-9.3-17.7-23-17.7-37.5
		c0-20,12-37.7,30.5-45.1c5.8-2.3,9.6-7.8,9.6-13.8v-61.8h17.1v61.6c0,6.2,3.9,11.8,9.8,14.2c2.7,1.1,5.3,2.5,7.8,4
		c3.5,2.2,8.1,1.2,10.4-2.3c2.2-3.5,1.2-8.1-2.3-10.4c-3.2-2.1-6.7-3.8-10.2-5.3c-0.3-0.1-0.5-0.3-0.5-0.3V55.6
		c0-6.9-3-13.4-8.3-17.9c-5.3-4.5-12.2-6.4-19.1-5.3c-11.2,1.8-19.6,12.2-19.6,24.1v300.8c0,0-0.1,0.1-0.2,0.1
		c-24.3,9.7-39.9,32.9-39.9,59c0,19.1,8.4,37,23.2,49.1c11.5,9.5,25.8,14.5,40.5,14.5c4.2,0,8.4-0.4,12.6-1.2
		c25.1-4.9,45.1-25.1,49.8-50.2c2.2-12.1,1.1-24.3-3.3-35.5c-1.5-3.9-5.9-5.7-9.7-4.2c-3.9,1.5-5.7,5.9-4.2,9.7
		C232,407,232.8,416.4,231.1,425.7z M181.9,47.2c2.6-0.4,5.1,0.3,7,1.9c1.9,1.6,3,4,3,6.5v225h-17.1V56.5
		C174.8,51.9,177.9,47.8,181.9,47.2z"/>
</g>
</svg>
