<?xml version="1.0" encoding="utf-8"?>
<!-- Generator: Adobe Illustrator 22.1.0, SVG Export Plug-In . SVG Version: 6.00 Build 0)  -->
<svg version="1.1" id="Layer_1" xmlns="http://www.w3.org/2000/svg" xmlns:xlink="http://www.w3.org/1999/xlink" x="0px" y="0px"
	 viewBox="0 0 512 512" style="enable-background:new 0 0 512 512;" xml:space="preserve">
<style type="text/css">
	.st0{fill:#FCFCFC;}
</style>
<g>
	<g>
		<path class="st0" d="M369.8,96.7c-13.6-11.3-31.7-15-48.5-9.8c-16.4,5.1-29.2,17.9-34.5,34.4v-84c0-16.8-13.4-30.9-29.8-31.4
			c-8.5-0.3-16.5,2.8-22.6,8.6c-6.1,5.9-9.4,13.8-9.4,22.3v83.3c-5.6-16-18.1-28.3-34.2-33.2c-16.8-5.2-34.9-1.5-48.5,9.8
			C51.8,172.1,0,283.6,0,402.5c0,20,1.5,40,4.4,59.6C6.8,478,18.1,491.3,33.2,496c22.1,6.8,45.2,10.2,68.5,10.2
			c32.2,0,63.5-6.4,92.9-19.1c10.8-4.7,19.2-13.8,23-25.2c19.7-58.6,29.7-120.1,29.7-182.6c0-1.4,0-2.8,0-4.2c0-0.1,0-0.1,0-0.2
			c0-0.5,0-1,0-1.5c0-1.4,0-2.9,0-4.3l0,0l0,0c-0.4-22.8-2.2-45.7-5.2-68.1l12-10c1-0.9,2.6-0.9,3.6,0l12.3,10.3
			c-3,22.4-4.8,45.1-5.2,67.9l0,0l0,0c-0.1,3.4-0.1,6.8-0.1,10.2c0,5.2,0.1,10.5,0.2,15.7c0,0.4,0,0.8,0,1.2
			c1.6,56.7,11.5,112.4,29.4,165.7c3.8,11.3,12.2,20.5,23,25.2c29.4,12.7,60.7,19.1,92.9,19.1c23.3,0,46.4-3.4,68.5-10.2
			c15.1-4.6,26.5-17.9,28.8-33.9c2.9-19.6,4.4-39.7,4.4-59.6C512,283.6,460.2,172.1,369.8,96.7z M241.8,36.8c0-3.8,1.5-7.4,4.3-10.1
			s6.4-4.1,10.3-3.9c7.5,0.3,13.5,6.8,13.5,14.6v17c-8.2,6.6-19.9,6.6-28.1,0L241.8,36.8L241.8,36.8z M241.8,73.5
			c4.5,1.7,9.3,2.6,14.1,2.6s9.5-0.9,14.1-2.6V88c-8.2,6.5-19.9,6.5-28.1,0L241.8,73.5L241.8,73.5z M241.8,107.1
			c4.5,1.7,9.3,2.6,14.1,2.6s9.5-0.9,14.1-2.6v13c-8.2,6.5-19.9,6.5-28.1,0L241.8,107.1L241.8,107.1z M36.7,457.8
			c1.3,3,3.8,5.3,6.9,6.3c12.3,3.7,25.8,6.2,41.1,7.8c0.3,0,0.6,0,0.8,0c4.3,0,7.9-3.2,8.4-7.6c0.5-4.6-2.9-8.8-7.6-9.2
			c-2.6-0.3-5.1-0.5-7.6-0.9c17.2-2.2,41-4,72.2-4c14.2,0,27.3-4.9,38.9-14.7l1.1-1c10.9-9.5,19.7-22.7,26.8-37.5
			c-4.3,20.1-9.8,40-16.3,59.5c-2.3,6.8-7.3,12.3-13.7,15.1c-27.3,11.8-56.3,17.8-86.2,17.8c-21.6,0-43-3.2-63.6-9.4
			c-9-2.7-15.6-10.7-17.1-20.2c-2.8-18.8-4.2-38-4.2-57.1c0-114,49.6-220.7,136.2-292.9c9.3-7.8,21.3-10.2,32.7-6.7
			c11.6,3.6,20.5,12.9,23.9,24.8c1.5,5.3,2.9,10.7,4.2,16.1l-22.7,18.9c-6.2-9.5-9.7-20.8-9.7-32.6V130c0-3.6,1.1-6.6,3.1-9.1
			c3-3.6,2.4-8.9-1.2-11.9c-3.6-3-8.9-2.4-11.9,1.2c-4.4,5.4-6.8,12.2-6.9,19.6v0.5c0,22.5,9.7,43.6,26.7,58.1
			c23.7,20.2,37.9,49.8,39.1,81.3c0,1.7,0,3.3,0,5c-0.9,11-10,112-50.3,147.2l-0.9,0.8c-8.6,7.2-17.8,10.7-28.1,10.7
			c-61.2,0-95.4,7.1-107.2,10.1c-2.3,0.6-4,2-5.1,3l-0.4,0.4l-0.4,0.5c-0.3,0.4-0.6,0.9-0.9,1.4C35.7,451.6,35.5,454.9,36.7,457.8z
			 M243.2,178l-21.6,18c-5.6-7.5-12.1-14.4-19.3-20.5l21.2-17.7c1.3,1.9,2.8,3.6,4.4,5.3c6.3,6.3,14.3,10,22.6,11.1
			C248,174.9,245.4,176.1,243.2,178z M239.9,151.1c-1.3-1.3-2.4-2.8-3.4-4.3c2.1-2.2,3.6-4.9,4.4-7.8c4.8,1.9,9.8,2.9,14.9,2.9
			c5.1,0,10.1-1,14.9-2.9c0.9,2.9,2.4,5.6,4.4,7.8c-0.9,1.6-2,3-3.4,4.3C263,159.8,248.7,159.8,239.9,151.1z M268.4,178
			c-2.2-1.9-4.7-3.1-7.4-3.9c8.3-1.1,16.3-4.8,22.6-11.1c1.7-1.6,3.1-3.4,4.4-5.3l21.4,17.9c-7.2,6.2-13.6,13.1-19.2,20.6L268.4,178
			z M490.9,459.7c-1.4,9.5-8.1,17.5-17.1,20.2c-20.6,6.3-42,9.4-63.6,9.4c-29.9,0-58.9-6-86.2-17.8c-6.4-2.8-11.5-8.3-13.7-15.1
			c-12.3-36.6-20.7-74.4-25.1-112.8c10.9,13.9,25.3,24.4,41.3,29.1l1.2,0.3h0.4c13.8,4.6,23.1,18,22.6,33l-0.8,26.5
			c-0.3,9.2,7,17,16.3,17.3h0.3c30.6,0,52.5,1.8,68.1,4c-3,0.4-6.1,0.8-9.2,1.1c-4.6,0.5-8,4.6-7.6,9.2c0.4,4.4,4.1,7.6,8.4,7.6
			c0.3,0,0.6,0,0.8,0c15.4-1.5,28.8-4.1,41.1-7.8c3.1-0.9,5.7-3.2,6.9-6.3c1.2-3,1.1-6.3-0.4-9.1c-0.3-0.5-0.6-1-0.9-1.4l-0.4-0.5
			l-0.4-0.4c-1.1-1.1-2.8-2.4-5.1-3c-12-3.1-39.9-10.3-101-10.3l0.8-26.4c0.7-23.1-14-43.7-35.8-50.1l-1.2-0.3h-0.4
			c-24.3-7.7-44-32.7-48.3-61.5c-0.1-5.2-0.2-10.3-0.2-15.5c0-3.3,0-6.5,0.1-9.8c1.2-31.5,15.4-61.1,39.1-81.3
			c16.9-14.4,26.7-35.6,26.7-58.1v-0.5c-0.1-7.4-2.5-14.2-6.9-19.6c-3-3.6-8.3-4.1-11.9-1.2c-3.6,3-4.1,8.3-1.2,11.9
			c2,2.4,3,5.5,3.1,9.1v0.3c0,11.9-3.5,23.2-9.8,32.8L298,144.1c1.4-5.5,2.8-10.9,4.3-16.3c3.4-12,12.3-21.2,23.9-24.8
			c11.5-3.6,23.4-1.1,32.7,6.7c86.5,72.2,136.2,178.9,136.2,292.9C495.1,421.6,493.7,440.9,490.9,459.7z"/>
	</g>
</g>
<g>
	<g>
		<ellipse transform="matrix(0.2425 -0.9701 0.9701 0.2425 158.0582 276.0371)" cx="255.8" cy="36.8" rx="8.4" ry="8.4"/>
	</g>
</g>
</svg>
